{"title":"The.Switch.2010.TS.XviD-PolishBits","uid":5785943,"size":741693369,"categoryP":"video","categoryS":"movies","magnet":"?xt=urn:btih:6526a41e96e40b3407c4280bccc06ef0b80e9fcb&amp;dn=The.Switch.2010.TS.XviD-PolishBits&amp;tr=udp%3A%2F%2Ftracker.openbittorrent.com%3A80&amp;tr=udp%3A%2F%2Fopen.demonii.com%3A1337&amp;tr=udp%3A%2F%2Ftracker.coppersurfer.tk%3A6969&amp;tr=udp%3A%2F%2Fexodus.desync.com%3A6969","seeders":0,"leechers":0,"uploader":"hiest","files":-1,"time":1282627380,"description":" \nAn unmarried 40-year-old woman turns to a turkey baster in order to become pregnant. Seven years later, she reunites with her best friend, who has been living with a secret: he replaced her preferred sperm sample with his own.\n\n\n  &lt;a href=&quot;\nhttp://www.imdb.com/title/tt0889573/&quot; rel=&quot;nofollow&quot; target=&quot;_NEW&quot;&gt;\nhttp://www.imdb.com/title/tt0889573/&lt;/a&gt;\nMOVIEmeter: Up 306% in popularity this week.\nGenre:Comedy | Drama | Romance \n\n\n \nVideo\nID : 0\nFormat : MPEG-4 Visual\nFormat profile : Advanced Simple@L5\nFormat settings, BVOP : Yes\nFormat settings, QPel : No\nFormat settings, GMC : No warppoints\nFormat settings, Matrix : Default (H.263)\nMuxing mode : Packed bitstream\nCodec ID : XVID\nCodec ID/Hint : XviD\nDuration : 1h 36mn\nBit rate : 878 Kbps\nWidth : 720 pixels\nHeight : 272 pixels\nDisplay aspect ratio : 2.647\nFrame rate : 25.000 fps\nResolution : 8 bits\nColorimetry : 4:2:0\nScan type : Progressive\nBits/(Pixel*Frame) : 0.179\nStream size : 606 MiB (86%)\nWriting library : XviD 1.2.1 (UTC 2008-12-04)\n\nAudio\nID : 1\nFormat : MPEG Audio\nFormat version : Version 1\nFormat profile : Layer 3\nMode : Joint stereo\nFormat_Settings_ModeExtension : MS Stereo\nCodec ID : 55\nCodec ID/Hint : MP3\nDuration : 1h 36mn\nBit rate mode : Constant\nBit rate : 128 Kbps\nChannel(s) : 2 channels\nSampling rate : 44.1 KHz\nStream size : 88.3 MiB (13%)\nAlignment : Split accross interleaves\nInterleave, duration : 40 ms (1.00 video frame)\nInterleave, preload duration : 500 ms\n\n\n &lt;a href=&quot;\nhttp://thepiratebay.se/user/hiest&quot; rel=&quot;nofollow&quot; target=&quot;_NEW&quot;&gt;\nhttp://thepiratebay.se/user/hiest&lt;/a&gt;\n\n\n\n\nScreenshots:\n &lt;a href=&quot;\nhttp://postimg.com/image/21000/20259.jpg&quot; rel=&quot;nofollow&quot; target=&quot;_NEW&quot;&gt;\nhttp://postimg.com/image/21000/20259.jpg&lt;/a&gt;","torrent":{"xt":"urn:btih:6526a41e96e40b3407c4280bccc06ef0b80e9fcb","amp;dn":"The.Switch.2010.TS.XviD-PolishBits","amp;tr":["udp%3A%2F%2Ftracker.openbittorrent.com%3A80","udp%3A%2F%2Fopen.demonii.com%3A1337","udp%3A%2F%2Ftracker.coppersurfer.tk%3A6969","udp%3A%2F%2Fexodus.desync.com%3A6969"],"infoHash":"6526a41e96e40b3407c4280bccc06ef0b80e9fcb","infoHashBuffer":{"type":"Buffer","data":[101,38,164,30,150,228,11,52,7,196,40,11,204,192,110,240,184,14,159,203]},"announce":[],"urlList":[]}}